<svg xmlns="http://www.w3.org/2000/svg"
 width="24.000000pt" height="24.000000pt" viewBox="0 0 24.000000 24.000000"
 preserveAspectRatio="xMidYMid meet">

<g transform="translate(0.000000,24.000000) scale(0.100000,-0.100000)"
fill="#000000" stroke="none">
<path d="M115 160 c-63 -55 -107 -121 -92 -136 3 -3 21 -1 39 5 37 12 153 140
153 169 0 33 -31 21 -100 -38z m13 -49 c3 -8 -1 -12 -9 -9 -7 2 -15 10 -17 17
-3 8 1 12 9 9 7 -2 15 -10 17 -17z m-31 -28 c4 -12 -35 -38 -44 -30 -2 3 1 15
7 27 12 22 31 23 37 3z"/>
</g>
</svg>
